# xmcd
#
# Track frame offsets: 
#        150
#        25603
#        56894
#        86513
#        105251
#        138757
#        167902
#        186974
#        216286
#        244331
#
# Disc length: 3492 seconds
#
# Revision: 0
# Processed by: cddbd v1.5.2PL0 Copyright (c) Steve Scherf et al.
# Submitted via: ExactAudioCopy v1.0b4
#
DISCID=840da20a
DTITLE=Clarence Gatemouth Brown - Ohne Filter - In Concert (DVD)
DYEAR=1900
DGENRE=Blues
TTITLE0=Bits and Pieces
TTITLE1=There You Are
TTITLE2=Early in the Morning
TTITLE3=Take the A-Train
TTITLE4=Long Way Home
TTITLE5=Honky Tonk
TTITLE6=C Jam Blues
TTITLE7=Stop Time
TTITLE8=Born in Louisiana
TTITLE9=Mojo Workin
EXTD=
EXTT0=
EXTT1=
EXTT2=
EXTT3=
EXTT4=
EXTT5=
EXTT6=
EXTT7=
EXTT8=
EXTT9=
PLAYORDER=
